<svg version="1.1" id="Layer_1" xmlns="http://www.w3.org/2000/svg" xmlns:xlink="http://www.w3.org/1999/xlink" x="0px" y="0px"
	 width="100%" viewBox="0 0 512 512" enable-background="new 0 0 512 512" xml:space="preserve">
<path fill="#010101" opacity="1.000000" stroke="none" 
	d="
M1.000000,136.000000 
	C1.000000,90.666664 1.000000,45.833332 1.000000,1.000000 
	C171.666672,1.000000 342.333344,1.000000 513.000000,1.000000 
	C513.000000,171.666672 513.000000,342.333344 513.000000,513.000000 
	C342.333344,513.000000 171.666672,513.000000 1.000000,513.000000 
	C1.000000,387.500000 1.000000,262.000000 1.000000,136.000000 
M253.829102,179.741867 
	C264.199707,175.108612 272.240967,177.698990 277.798248,187.436676 
	C285.931915,201.688721 290.367065,216.928619 290.186157,233.422775 
	C290.133820,238.191910 290.178101,242.962097 290.178101,248.066711 
	C294.801605,248.066711 298.890839,248.066711 303.900604,248.275085 
	C360.657257,248.275085 417.413940,248.275085 474.416595,248.275085 
	C474.416595,187.957428 474.416595,128.106140 474.416595,68.221375 
	C403.042847,68.221375 331.995331,68.221375 260.585480,68.221375 
	C260.585480,70.484489 260.585541,72.458221 260.585510,74.431953 
	C260.585022,100.414787 260.605865,126.397644 260.569550,152.380432 
	C260.560028,159.202393 259.381592,160.725479 252.377548,162.572632 
	C246.810135,161.540283 245.508377,157.722198 245.523453,152.670151 
	C245.601898,126.373459 245.559845,100.076416 245.559738,73.779495 
	C245.559738,71.982445 245.559738,70.185387 245.559738,67.923119 
	C243.334747,67.923119 241.545364,67.923119 239.755981,67.923119 
	C181.836182,67.923119 123.916382,67.920464 65.996582,67.931656 
	C63.338818,67.932175 60.681080,68.057205 57.099365,67.938408 
	C51.317024,67.938408 45.534679,67.938408 39.503662,67.938408 
	C39.503662,128.201035 39.503662,188.016602 39.503662,248.044296 
	C45.803154,248.044296 51.907440,248.044296 58.921928,248.280380 
	C116.122505,248.297256 173.323090,248.315247 230.523666,248.320084 
	C231.345428,248.320145 232.167175,248.155869 233.751236,248.315094 
	C237.635101,248.315094 241.518982,248.315094 245.666672,248.315094 
	C245.666672,230.596558 245.818436,213.708298 245.593674,196.825043 
	C245.500809,189.849609 247.527924,184.172607 253.829102,179.741867 
M302.585449,343.398376 
	C298.697083,341.348206 294.808685,339.298065 290.144043,336.838623 
	C290.144043,342.360626 290.013641,347.076813 290.248108,351.774811 
	C290.298248,352.779510 291.476837,354.064240 292.471130,354.624481 
	C295.901215,356.557281 299.479736,358.226685 303.475494,360.486389 
	C309.046906,363.467743 314.498993,366.704559 320.215607,369.375000 
	C330.720490,374.282227 335.417694,382.470734 335.908844,393.889648 
	C336.915222,417.286469 357.708191,434.803040 380.961456,432.222443 
	C398.356598,430.291962 412.387451,418.746368 416.848450,402.691956 
	C421.349426,386.493683 415.560638,368.649963 402.612885,358.810944 
	C388.333282,347.959839 370.440613,346.698669 355.436188,356.116486 
	C346.125610,361.960449 337.224457,362.195862 327.725983,356.871796 
	C319.616333,352.326233 311.256317,348.227417 302.585449,343.398376 
M303.937775,300.107819 
	C355.046753,300.114258 406.155762,300.132477 457.264740,300.116577 
	C466.763123,300.113617 473.513885,295.008575 474.344177,286.189758 
	C475.038330,278.817200 474.486603,271.327362 474.486603,263.598938 
	C472.968170,263.498596 471.675537,263.338745 470.382843,263.338440 
	C415.611267,263.326111 360.839661,263.326782 306.068085,263.337677 
	C305.076263,263.337860 304.084473,263.480560 302.188843,263.287140 
	C298.266479,263.287140 294.344086,263.287140 290.390594,263.287140 
	C290.390594,275.919922 290.390594,287.832611 290.390594,299.969055 
	C294.776978,299.969055 298.893890,299.969055 303.937775,300.107819 
M231.988358,263.361664 
	C175.162720,263.351166 118.337082,263.338715 61.511440,263.344025 
	C60.359325,263.344147 59.207226,263.551270 57.150948,263.374695 
	C51.252064,263.374695 45.353176,263.374695 39.253101,263.374695 
	C39.253101,268.658142 39.545849,273.159363 39.198956,277.610687 
	C38.097809,291.740662 43.488056,301.734406 62.022369,300.128265 
	C62.681801,300.071136 63.339268,299.991272 64.920769,300.098175 
	C97.505501,300.107666 130.090256,300.138641 162.674973,300.119446 
	C186.112885,300.105652 209.550766,300.024841 233.901932,300.175537 
	C237.676132,300.175537 241.450333,300.175537 245.456955,300.175537 
	C245.456955,287.733856 245.456955,275.741119 245.456955,263.546112 
	C241.064285,263.546112 236.979065,263.546112 231.988358,263.361664 
M58.962463,52.898438 
	C197.374649,52.898438 335.786835,52.898438 474.739136,52.898438 
	C474.739136,47.023415 474.741577,41.570824 474.738647,36.118229 
	C474.730957,21.772333 469.036896,16.000376 454.882172,16.000263 
	C326.422668,15.999246 197.963165,15.999022 69.503662,16.006124 
	C67.674263,16.006226 65.844864,16.103319 63.098938,15.996203 
	C60.600670,15.990756 58.101101,15.930495 55.604370,15.989830 
	C47.093391,16.192097 40.319355,21.681242 39.573242,30.097506 
	C38.918190,37.486568 39.436394,44.979641 39.436394,52.744198 
	C45.830833,52.744198 51.936401,52.744198 58.962463,52.898438 
M275.182434,308.500000 
	C275.158875,282.344635 275.216949,256.188843 275.076050,230.034088 
	C275.009033,217.598892 271.148743,206.146484 265.025177,195.430389 
	C264.354858,194.257401 263.046631,193.448959 262.034302,192.471420 
	C261.588562,192.678192 261.142792,192.884964 260.697052,193.091736 
	C260.697052,195.189606 260.697052,197.287460 260.697052,199.385330 
	C260.697052,264.524506 260.594849,329.664001 260.790039,394.802582 
	C260.825684,406.708435 256.911591,415.356842 246.225327,421.573822 
	C230.667831,430.624725 223.499329,448.918457 227.643936,465.929932 
	C232.157455,484.455597 248.220810,497.606445 266.781586,497.971405 
	C285.458038,498.338593 302.398529,485.942749 307.690643,468.036835 
	C313.008423,450.044281 305.561798,430.758667 288.990143,421.090088 
	C279.336060,415.457520 275.057861,407.494568 275.123901,396.462952 
	C275.297424,367.476227 275.182556,338.487762 275.182434,308.500000 
M239.369629,315.061096 
	C232.962448,315.061096 226.555267,315.061096 220.148087,315.061096 
	C220.038589,315.386108 219.929092,315.711121 219.819580,316.036133 
	C228.130280,320.452179 236.440994,324.868256 245.458893,329.660095 
	C245.458893,324.306458 245.458893,319.969482 245.458893,315.289764 
	C243.557571,315.205139 241.941162,315.133179 239.369629,315.061096 
z"/>
<path fill="#F27C7C" opacity="1.000000" stroke="none" 
	d="
M253.015488,162.888474 
	C259.381592,160.725479 260.560028,159.202393 260.569550,152.380432 
	C260.605865,126.397644 260.585022,100.414787 260.585510,74.431953 
	C260.585541,72.458221 260.585480,70.484489 260.585480,68.221375 
	C331.995331,68.221375 403.042847,68.221375 474.416595,68.221375 
	C474.416595,128.106140 474.416595,187.957428 474.416595,248.275085 
	C417.413940,248.275085 360.657257,248.275085 303.441956,247.697662 
	C303.731049,225.299179 301.073608,204.279541 290.446716,184.613617 
	C281.555511,168.159729 271.402740,162.656677 253.116730,165.649170 
	C253.040176,164.468994 253.027832,163.678741 253.015488,162.888474 
M335.411865,118.811966 
	C330.233887,122.752014 328.107086,128.110657 328.109161,134.470779 
	C328.114319,150.126816 328.038239,165.783264 328.130615,181.438751 
	C328.226196,197.638092 342.588898,206.028290 356.603027,198.015167 
	C370.029419,190.338104 383.379730,182.523666 396.656677,174.590851 
	C410.611450,166.253021 410.625854,150.022659 396.672333,141.658035 
	C383.407440,133.706253 369.975281,126.034081 356.657043,118.170532 
	C349.687592,114.055527 342.837799,113.888008 335.411865,118.811966 
z"/>
<path fill="#BADFFE" opacity="1.000000" stroke="none" 
	d="
M252.696518,162.730560 
	C253.027832,163.678741 253.040176,164.468994 253.030609,165.881348 
	C253.008682,166.503433 252.841248,166.969528 252.478058,166.987213 
	C251.471481,167.156738 250.768814,167.190063 250.193466,167.477890 
	C238.614899,173.269958 233.201416,182.962265 233.058868,195.603012 
	C232.861694,213.089478 232.996368,230.579697 232.988937,248.068298 
	C232.167175,248.155869 231.345428,248.320145 230.523666,248.320084 
	C173.323090,248.315247 116.122505,248.297256 58.468033,247.690796 
	C58.017197,187.442230 58.020260,127.783241 58.023327,68.124252 
	C60.681080,68.057205 63.338818,67.932175 65.996582,67.931656 
	C123.916382,67.920464 181.836182,67.923119 239.755981,67.923119 
	C241.545364,67.923119 243.334747,67.923119 245.559738,67.923119 
	C245.559738,70.185387 245.559738,71.982445 245.559738,73.779495 
	C245.559845,100.076416 245.601898,126.373459 245.523453,152.670151 
	C245.508377,157.722198 246.810135,161.540283 252.696518,162.730560 
M103.012375,158.500000 
	C103.013893,166.490189 102.912712,174.482025 103.039146,182.470230 
	C103.273994,197.307251 117.623909,205.772202 130.561279,198.490326 
	C144.599426,190.588867 158.507401,182.442352 172.275818,174.079468 
	C185.323029,166.154663 185.171967,149.879730 172.034607,141.977982 
	C158.370483,133.759384 144.610260,125.691071 130.728149,117.847122 
	C117.561470,110.407425 103.217941,118.883865 103.030449,134.029007 
	C102.933601,141.851532 103.012741,149.676270 103.012375,158.500000 
z"/>
<path fill="#FEDF7D" opacity="1.000000" stroke="none" 
	d="
M64.015465,16.155144 
	C65.844864,16.103319 67.674263,16.006226 69.503662,16.006124 
	C197.963165,15.999022 326.422668,15.999246 454.882172,16.000263 
	C469.036896,16.000376 474.730957,21.772333 474.738647,36.118229 
	C474.741577,41.570824 474.739136,47.023415 474.739136,52.898438 
	C335.786835,52.898438 197.374649,52.898438 58.495644,52.369156 
	C58.017918,49.370018 58.051529,46.899021 57.988289,44.430511 
	C57.734379,34.519749 57.435841,24.606640 64.015465,16.155144 
M278.731079,41.976322 
	C281.548157,41.968830 284.373657,42.097370 287.180359,41.922821 
	C291.696655,41.641953 294.875031,38.391232 294.829895,34.348209 
	C294.784210,30.257427 291.601929,27.152020 287.036621,26.985584 
	C283.395752,26.852852 279.741760,26.856159 276.102631,27.011303 
	C274.672394,27.072277 272.535950,27.268328 271.990204,28.170536 
	C270.496582,30.639732 268.548920,33.643105 268.835602,36.205070 
	C269.364929,40.935432 273.432922,42.171619 278.731079,41.976322 
M220.156250,30.783705 
	C218.289032,36.799503 220.566803,41.349327 226.102890,41.840141 
	C230.383728,42.219662 234.756958,42.215164 239.033096,41.801792 
	C243.202896,41.398697 245.494446,38.511082 245.700027,34.371582 
	C245.894043,30.465088 242.687225,27.235577 238.453186,27.016672 
	C234.644547,26.819759 230.768677,26.594252 227.018448,27.097179 
	C224.781204,27.397209 222.728928,29.076477 220.156250,30.783705 
M318.792755,38.690960 
	C322.780212,42.366261 336.949371,43.795624 340.654663,40.301807 
	C342.419159,38.637993 344.068848,35.033760 343.421936,33.090294 
	C342.607880,30.644764 339.684875,28.017260 337.136200,27.251892 
	C333.782013,26.244619 329.905792,26.917545 326.255402,26.966831 
	C319.033508,27.064346 316.279236,30.966654 318.792755,38.690960 
M370.017639,28.083096 
	C366.909027,30.234554 365.452301,33.416889 367.103912,36.668438 
	C368.214111,38.854172 370.831726,41.241962 373.116089,41.655655 
	C377.445190,42.439663 382.054230,42.211388 386.481323,41.759735 
	C390.355560,41.364483 392.739746,38.647152 392.888214,34.683411 
	C393.037109,30.708858 390.831543,27.558233 387.000122,27.256132 
	C381.632874,26.832932 376.177582,27.526402 370.017639,28.083096 
M192.955826,40.832836 
	C196.168182,38.541523 197.430054,35.504284 196.018600,31.745762 
	C194.590637,27.943254 191.485321,26.808567 187.650330,26.933002 
	C184.170868,27.045898 180.673843,26.797716 177.205414,27.025734 
	C172.954422,27.305193 170.439911,29.915798 170.194458,34.040352 
	C169.945343,38.226265 172.360916,41.392868 176.441772,41.695866 
	C181.655548,42.082985 186.949921,41.384186 192.955826,40.832836 
M126.370201,27.220503 
	C122.381752,28.948160 120.211426,31.888300 121.345009,36.253529 
	C122.466927,40.573822 125.813553,42.093399 130.089294,41.985538 
	C133.565292,41.897854 137.061584,42.145195 140.517746,41.862881 
	C144.736069,41.518307 147.581146,38.182983 147.476227,34.223480 
	C147.369644,30.202267 144.464417,27.184687 140.129028,27.018013 
	C135.830948,26.852776 131.519974,27.023144 126.370201,27.220503 
M73.414268,30.021635 
	C70.783386,35.931396 72.805077,41.116798 78.426476,41.762230 
	C82.839775,42.268955 87.513466,42.575283 91.766357,41.616795 
	C94.218689,41.064106 96.882614,38.183331 97.977020,35.700565 
	C99.340324,32.607830 97.738487,28.804661 94.381569,28.044937 
	C87.572891,26.504023 80.479568,25.092089 73.414268,30.021635 
M420.539886,41.420467 
	C425.479950,41.575459 430.436951,42.048927 435.354919,41.787647 
	C439.510040,41.566895 442.369873,37.858429 441.948029,33.916985 
	C441.502045,29.749660 439.046356,27.279621 434.833435,27.020723 
	C431.369171,26.807835 427.879150,27.053648 424.405975,26.935606 
	C420.541656,26.804274 417.397888,28.050436 416.131958,31.842524 
	C414.836731,35.722347 415.981384,39.019718 420.539886,41.420467 
z"/>
<path fill="#8D858D" opacity="1.000000" stroke="none" 
	d="
M275.182495,309.000000 
	C275.182556,338.487762 275.297424,367.476227 275.123901,396.462952 
	C275.057861,407.494568 279.336060,415.457520 288.990143,421.090088 
	C305.561798,430.758667 313.008423,450.044281 307.690643,468.036835 
	C302.398529,485.942749 285.458038,498.338593 266.781586,497.971405 
	C248.220810,497.606445 232.157455,484.455597 227.643936,465.929932 
	C223.499329,448.918457 230.667831,430.624725 246.225327,421.573822 
	C256.911591,415.356842 260.825684,406.708435 260.790039,394.802582 
	C260.594849,329.664001 260.697052,264.524506 260.697052,199.385330 
	C260.697052,197.287460 260.697052,195.189606 260.697052,193.091736 
	C261.142792,192.884964 261.588562,192.678192 262.034302,192.471420 
	C263.046631,193.448959 264.354858,194.257401 265.025177,195.430389 
	C271.148743,206.146484 275.009033,217.598892 275.076050,230.034088 
	C275.216949,256.188843 275.158875,282.344635 275.182495,309.000000 
M291.683472,446.077271 
	C291.047882,444.907318 290.483673,443.691498 289.765625,442.574554 
	C282.905579,431.903931 269.303070,427.753143 257.686646,432.758514 
	C246.144363,437.731964 239.746475,450.264893 242.631653,462.249939 
	C246.203201,477.086182 260.865295,485.752930 275.221222,481.513550 
	C290.005798,477.147552 297.209473,462.215210 291.683472,446.077271 
z"/>
<path fill="#FEDF7C" opacity="1.000000" stroke="none" 
	d="
M232.988663,299.973938 
	C209.550766,300.024841 186.112885,300.105652 162.674973,300.119446 
	C130.090256,300.138641 97.505501,300.107666 64.308311,299.701172 
	C61.799358,293.575775 59.141361,287.966827 58.218380,282.085632 
	C57.276440,276.083618 58.038864,269.814148 58.055115,263.661774 
	C59.207226,263.551270 60.359325,263.344147 61.511440,263.344025 
	C118.337082,263.338715 175.162720,263.351166 232.486908,263.884766 
	C232.986526,276.263214 232.987595,288.118561 232.988663,299.973938 
M121.090508,280.804871 
	C121.642128,286.926605 123.807678,289.082214 129.742798,289.245178 
	C132.889771,289.331604 136.044113,289.346649 139.189774,289.238190 
	C144.346390,289.060394 147.385956,286.312988 147.469849,281.924774 
	C147.555481,277.446106 144.252090,274.419342 138.955185,274.253265 
	C135.974457,274.159790 132.987701,274.275970 130.004974,274.223511 
	C125.724785,274.148285 122.634537,275.803802 121.090508,280.804871 
M176.418518,274.400543 
	C171.953613,275.632538 169.462921,278.536621 170.321167,283.160583 
	C171.125671,287.495056 174.330261,289.363525 178.714813,289.270630 
	C182.025726,289.200470 185.343689,289.351288 188.650192,289.209656 
	C193.419846,289.005341 196.442322,286.198914 196.601776,282.058319 
	C196.764908,277.822205 193.512955,274.493805 188.683548,274.278931 
	C184.882462,274.109802 181.067001,274.264069 176.418518,274.400543 
M95.023491,288.025116 
	C100.159927,282.835083 99.081100,275.785034 92.613335,274.698273 
	C87.801659,273.889740 82.696686,274.124451 77.811363,274.678925 
	C73.906410,275.122101 71.854996,278.189758 72.055046,282.171967 
	C72.241600,285.885468 74.348831,288.760345 78.063049,288.947876 
	C83.454399,289.220093 88.888725,288.641022 95.023491,288.025116 
z"/>
<path fill="#FDDE7C" opacity="1.000000" stroke="none" 
	d="
M303.092651,263.556763 
	C304.084473,263.480560 305.076263,263.337860 306.068085,263.337677 
	C360.839661,263.326782 415.611267,263.326111 470.382843,263.338440 
	C471.675537,263.338745 472.968170,263.498596 474.486603,263.598938 
	C474.486603,271.327362 475.038330,278.817200 474.344177,286.189758 
	C473.513885,295.008575 466.763123,300.113617 457.264740,300.116577 
	C406.155762,300.132477 355.046753,300.114258 303.445801,299.572449 
	C303.000092,287.210327 303.046387,275.383545 303.092651,263.556763 
M325.848816,289.258148 
	C329.158905,289.252106 332.472992,289.347656 335.778107,289.216156 
	C340.704407,289.020142 343.954193,285.931061 343.894470,281.702515 
	C343.834656,277.465027 340.578430,274.463837 335.608704,274.262482 
	C332.469147,274.135284 329.318756,274.176697 326.175903,274.252136 
	C321.010864,274.376129 317.804535,276.959412 317.422852,281.185547 
	C317.045410,285.364777 319.724823,288.221863 325.848816,289.258148 
M387.407471,274.644531 
	C382.785980,274.524109 378.150696,274.130402 373.547058,274.363098 
	C369.275696,274.579010 366.456116,277.960083 366.525482,281.924866 
	C366.596191,285.965881 369.398865,288.890381 373.809113,289.157776 
	C377.275543,289.368011 380.763702,289.190491 384.240143,289.272003 
	C388.338654,289.368103 391.507568,287.835358 392.623291,283.762421 
	C393.733368,279.710205 392.014465,276.679688 387.407471,274.644531 
M433.938293,274.239227 
	C430.105804,274.260803 426.251221,274.032990 422.446686,274.369995 
	C418.142792,274.751190 415.394257,278.103790 415.707764,282.188110 
	C416.035645,286.459869 418.450165,288.904938 422.743561,289.150848 
	C426.066528,289.341187 429.407196,289.293549 432.738647,289.248871 
	C438.256866,289.174866 441.368195,286.962891 441.949615,282.817688 
	C442.530884,278.673676 440.150146,275.826355 433.938293,274.239227 
z"/>
<path fill="#746B76" opacity="1.000000" stroke="none" 
	d="
M303.007019,343.930969 
	C311.256317,348.227417 319.616333,352.326233 327.725983,356.871796 
	C337.224457,362.195862 346.125610,361.960449 355.436188,356.116486 
	C370.440613,346.698669 388.333282,347.959839 402.612885,358.810944 
	C415.560638,368.649963 421.349426,386.493683 416.848450,402.691956 
	C412.387451,418.746368 398.356598,430.291962 380.961456,432.222443 
	C357.708191,434.803040 336.915222,417.286469 335.908844,393.889648 
	C335.417694,382.470734 330.720490,374.282227 320.215607,369.375000 
	C314.498993,366.704559 309.046906,363.467743 303.234375,359.774658 
	C302.997864,354.018982 303.002441,348.974976 303.007019,343.930969 
M352.012970,398.190460 
	C352.396362,399.288818 352.706512,400.419434 353.174225,401.480621 
	C358.898254,414.468109 373.313324,420.499115 386.481506,415.437408 
	C399.302002,410.509277 406.003235,396.211609 401.642731,383.089661 
	C397.310455,370.052673 383.463959,362.650330 370.080688,366.216492 
	C356.719360,369.776825 348.714172,383.473419 352.012970,398.190460 
z"/>
<path fill="#9AC5E7" opacity="1.000000" stroke="none" 
	d="
M57.561348,68.031326 
	C58.020260,127.783241 58.017197,187.442230 58.012932,247.572754 
	C51.907440,248.044296 45.803154,248.044296 39.503662,248.044296 
	C39.503662,188.016602 39.503662,128.201035 39.503662,67.938408 
	C45.534679,67.938408 51.317024,67.938408 57.561348,68.031326 
z"/>
<path fill="#E85367" opacity="1.000000" stroke="none" 
	d="
M252.841248,166.969528 
	C252.841248,166.969528 253.008682,166.503433 253.094818,166.271255 
	C271.402740,162.656677 281.555511,168.159729 290.446716,184.613617 
	C301.073608,204.279541 303.731049,225.299179 302.981659,247.593475 
	C298.890839,248.066711 294.801605,248.066711 290.178101,248.066711 
	C290.178101,242.962097 290.133820,238.191910 290.186157,233.422775 
	C290.367065,216.928619 285.931915,201.688721 277.798248,187.436676 
	C272.240967,177.698990 264.199707,175.108612 253.431732,179.364548 
	C252.969986,174.981323 252.905624,170.975433 252.841248,166.969528 
z"/>
<path fill="#9AC5E7" opacity="1.000000" stroke="none" 
	d="
M252.478058,166.987213 
	C252.905624,170.975433 252.969986,174.981323 253.073730,179.440674 
	C247.527924,184.172607 245.500809,189.849609 245.593674,196.825043 
	C245.818436,213.708298 245.666672,230.596558 245.666672,248.315094 
	C241.518982,248.315094 237.635101,248.315094 233.370087,248.191696 
	C232.996368,230.579697 232.861694,213.089478 233.058868,195.603012 
	C233.201416,182.962265 238.614899,173.269958 250.193466,167.477890 
	C250.768814,167.190063 251.471481,167.156738 252.478058,166.987213 
z"/>
<path fill="#FBCD63" opacity="1.000000" stroke="none" 
	d="
M57.603031,263.518250 
	C58.038864,269.814148 57.276440,276.083618 58.218380,282.085632 
	C59.141361,287.966827 61.799358,293.575775 63.846756,299.613098 
	C63.339268,299.991272 62.681801,300.071136 62.022369,300.128265 
	C43.488056,301.734406 38.097809,291.740662 39.198956,277.610687 
	C39.545849,273.159363 39.253101,268.658142 39.253101,263.374695 
	C45.353176,263.374695 51.252064,263.374695 57.603031,263.518250 
z"/>
<path fill="#EEC765" opacity="1.000000" stroke="none" 
	d="
M63.557201,16.075674 
	C57.435841,24.606640 57.734379,34.519749 57.988289,44.430511 
	C58.051529,46.899021 58.017918,49.370018 58.035393,52.292034 
	C51.936401,52.744198 45.830833,52.744198 39.436394,52.744198 
	C39.436394,44.979641 38.918190,37.486568 39.573242,30.097506 
	C40.319355,21.681242 47.093391,16.192097 55.604370,15.989830 
	C58.101101,15.930495 60.600670,15.990756 63.557201,16.075674 
z"/>
<path fill="#DAB45A" opacity="1.000000" stroke="none" 
	d="
M233.445297,300.074707 
	C232.987595,288.118561 232.986526,276.263214 232.939651,263.976990 
	C236.979065,263.546112 241.064285,263.546112 245.456955,263.546112 
	C245.456955,275.741119 245.456955,287.733856 245.456955,300.175537 
	C241.450333,300.175537 237.676132,300.175537 233.445297,300.074707 
z"/>
<path fill="#DEB85B" opacity="1.000000" stroke="none" 
	d="
M302.640747,263.421936 
	C303.046387,275.383545 303.000092,287.210327 302.982300,299.503082 
	C298.893890,299.969055 294.776978,299.969055 290.390594,299.969055 
	C290.390594,287.832611 290.390594,275.919922 290.390594,263.287140 
	C294.344086,263.287140 298.266479,263.287140 302.640747,263.421936 
z"/>
<path fill="#5E5660" opacity="1.000000" stroke="none" 
	d="
M302.796234,343.664673 
	C303.002441,348.974976 302.997864,354.018982 302.997498,359.529663 
	C299.479736,358.226685 295.901215,356.557281 292.471130,354.624481 
	C291.476837,354.064240 290.298248,352.779510 290.248108,351.774811 
	C290.013641,347.076813 290.144043,342.360626 290.144043,336.838623 
	C294.808685,339.298065 298.697083,341.348206 302.796234,343.664673 
z"/>
<path fill="#5B535C" opacity="1.000000" stroke="none" 
	d="
M239.847198,315.061157 
	C241.941162,315.133179 243.557571,315.205139 245.458893,315.289764 
	C245.458893,319.969482 245.458893,324.306458 245.458893,329.660095 
	C236.440994,324.868256 228.130280,320.452179 219.819580,316.036133 
	C219.929092,315.711121 220.038589,315.386108 220.148087,315.061096 
	C226.555267,315.061096 232.962448,315.061096 239.847198,315.061157 
z"/>
<path fill="#040303" opacity="1.000000" stroke="none" 
	d="
M335.698730,118.581467 
	C342.837799,113.888008 349.687592,114.055527 356.657043,118.170532 
	C369.975281,126.034081 383.407440,133.706253 396.672333,141.658035 
	C410.625854,150.022659 410.611450,166.253021 396.656677,174.590851 
	C383.379730,182.523666 370.029419,190.338104 356.603027,198.015167 
	C342.588898,206.028290 328.226196,197.638092 328.130615,181.438751 
	C328.038239,165.783264 328.114319,150.126816 328.109161,134.470779 
	C328.107086,128.110657 330.233887,122.752014 335.698730,118.581467 
M343.120667,135.017334 
	C343.120392,150.148376 343.094238,165.279480 343.132965,180.410431 
	C343.147827,186.227188 345.081177,187.388840 350.024963,184.517136 
	C362.934113,177.018570 375.818146,169.476379 388.675690,161.889725 
	C393.256104,159.187027 393.305450,157.070877 388.779144,154.391235 
	C375.647949,146.617401 362.454865,138.948029 349.287048,131.236038 
	C345.817627,129.204086 343.598511,129.815094 343.120667,135.017334 
z"/>
<path fill="#030303" opacity="1.000000" stroke="none" 
	d="
M103.012375,158.000000 
	C103.012741,149.676270 102.933601,141.851532 103.030449,134.029007 
	C103.217941,118.883865 117.561470,110.407425 130.728149,117.847122 
	C144.610260,125.691071 158.370483,133.759384 172.034607,141.977982 
	C185.171967,149.879730 185.323029,166.154663 172.275818,174.079468 
	C158.507401,182.442352 144.599426,190.588867 130.561279,198.490326 
	C117.623909,205.772202 103.273994,197.307251 103.039146,182.470230 
	C102.912712,174.482025 103.013893,166.490189 103.012375,158.000000 
M131.742645,135.756592 
	C129.450867,134.414078 127.172676,133.047714 124.864517,131.733978 
	C119.797112,128.849747 118.043427,129.858795 118.030617,135.764923 
	C117.998497,150.574768 118.003281,165.384766 118.027588,180.194641 
	C118.037849,186.447601 119.752991,187.474823 125.103455,184.359497 
	C137.727295,177.009216 150.325928,169.615402 162.910019,162.197235 
	C168.309555,159.014236 168.298935,157.179749 162.891174,153.984390 
	C152.743149,147.988068 142.567535,142.038406 131.742645,135.756592 
z"/>
<path fill="#070603" opacity="1.000000" stroke="none" 
	d="
M278.277039,41.976257 
	C273.432922,42.171619 269.364929,40.935432 268.835602,36.205070 
	C268.548920,33.643105 270.496582,30.639732 271.990204,28.170536 
	C272.535950,27.268328 274.672394,27.072277 276.102631,27.011303 
	C279.741760,26.856159 283.395752,26.852852 287.036621,26.985584 
	C291.601929,27.152020 294.784210,30.257427 294.829895,34.348209 
	C294.875031,38.391232 291.696655,41.641953 287.180359,41.922821 
	C284.373657,42.097370 281.548157,41.968830 278.277039,41.976257 
z"/>
<path fill="#070603" opacity="1.000000" stroke="none" 
	d="
M220.374878,30.459717 
	C222.728928,29.076477 224.781204,27.397209 227.018448,27.097179 
	C230.768677,26.594252 234.644547,26.819759 238.453186,27.016672 
	C242.687225,27.235577 245.894043,30.465088 245.700027,34.371582 
	C245.494446,38.511082 243.202896,41.398697 239.033096,41.801792 
	C234.756958,42.215164 230.383728,42.219662 226.102890,41.840141 
	C220.566803,41.349327 218.289032,36.799503 220.374878,30.459717 
z"/>
<path fill="#060503" opacity="1.000000" stroke="none" 
	d="
M318.569519,38.384888 
	C316.279236,30.966654 319.033508,27.064346 326.255402,26.966831 
	C329.905792,26.917545 333.782013,26.244619 337.136200,27.251892 
	C339.684875,28.017260 342.607880,30.644764 343.421936,33.090294 
	C344.068848,35.033760 342.419159,38.637993 340.654663,40.301807 
	C336.949371,43.795624 322.780212,42.366261 318.569519,38.384888 
z"/>
<path fill="#050402" opacity="1.000000" stroke="none" 
	d="
M370.388794,27.912634 
	C376.177582,27.526402 381.632874,26.832932 387.000122,27.256132 
	C390.831543,27.558233 393.037109,30.708858 392.888214,34.683411 
	C392.739746,38.647152 390.355560,41.364483 386.481323,41.759735 
	C382.054230,42.211388 377.445190,42.439663 373.116089,41.655655 
	C370.831726,41.241962 368.214111,38.854172 367.103912,36.668438 
	C365.452301,33.416889 366.909027,30.234554 370.388794,27.912634 
z"/>
<path fill="#060503" opacity="1.000000" stroke="none" 
	d="
M192.582703,40.993118 
	C186.949921,41.384186 181.655548,42.082985 176.441772,41.695866 
	C172.360916,41.392868 169.945343,38.226265 170.194458,34.040352 
	C170.439911,29.915798 172.954422,27.305193 177.205414,27.025734 
	C180.673843,26.797716 184.170868,27.045898 187.650330,26.933002 
	C191.485321,26.808567 194.590637,27.943254 196.018600,31.745762 
	C197.430054,35.504284 196.168182,38.541523 192.582703,40.993118 
z"/>
<path fill="#050402" opacity="1.000000" stroke="none" 
	d="
M126.792427,27.133411 
	C131.519974,27.023144 135.830948,26.852776 140.129028,27.018013 
	C144.464417,27.184687 147.369644,30.202267 147.476227,34.223480 
	C147.581146,38.182983 144.736069,41.518307 140.517746,41.862881 
	C137.061584,42.145195 133.565292,41.897854 130.089294,41.985538 
	C125.813553,42.093399 122.466927,40.573822 121.345009,36.253529 
	C120.211426,31.888300 122.381752,28.948160 126.792427,27.133411 
z"/>
<path fill="#040302" opacity="1.000000" stroke="none" 
	d="
M73.677925,29.721649 
	C80.479568,25.092089 87.572891,26.504023 94.381569,28.044937 
	C97.738487,28.804661 99.340324,32.607830 97.977020,35.700565 
	C96.882614,38.183331 94.218689,41.064106 91.766357,41.616795 
	C87.513466,42.575283 82.839775,42.268955 78.426476,41.762230 
	C72.805077,41.116798 70.783386,35.931396 73.677925,29.721649 
z"/>
<path fill="#040302" opacity="1.000000" stroke="none" 
	d="
M420.159088,41.250305 
	C415.981384,39.019718 414.836731,35.722347 416.131958,31.842524 
	C417.397888,28.050436 420.541656,26.804274 424.405975,26.935606 
	C427.879150,27.053648 431.369171,26.807835 434.833435,27.020723 
	C439.046356,27.279621 441.502045,29.749660 441.948029,33.916985 
	C442.369873,37.858429 439.510040,41.566895 435.354919,41.787647 
	C430.436951,42.048927 425.479950,41.575459 420.159088,41.250305 
z"/>
<path fill="#010101" opacity="1.000000" stroke="none" 
	d="
M291.825287,446.439392 
	C297.209473,462.215210 290.005798,477.147552 275.221222,481.513550 
	C260.865295,485.752930 246.203201,477.086182 242.631653,462.249939 
	C239.746475,450.264893 246.144363,437.731964 257.686646,432.758514 
	C269.303070,427.753143 282.905579,431.903931 289.765625,442.574554 
	C290.483673,443.691498 291.047882,444.907318 291.825287,446.439392 
z"/>
<path fill="#070604" opacity="1.000000" stroke="none" 
	d="
M121.158829,280.419983 
	C122.634537,275.803802 125.724785,274.148285 130.004974,274.223511 
	C132.987701,274.275970 135.974457,274.159790 138.955185,274.253265 
	C144.252090,274.419342 147.555481,277.446106 147.469849,281.924774 
	C147.385956,286.312988 144.346390,289.060394 139.189774,289.238190 
	C136.044113,289.346649 132.889771,289.331604 129.742798,289.245178 
	C123.807678,289.082214 121.642128,286.926605 121.158829,280.419983 
z"/>
<path fill="#070603" opacity="1.000000" stroke="none" 
	d="
M176.838226,274.337585 
	C181.067001,274.264069 184.882462,274.109802 188.683548,274.278931 
	C193.512955,274.493805 196.764908,277.822205 196.601776,282.058319 
	C196.442322,286.198914 193.419846,289.005341 188.650192,289.209656 
	C185.343689,289.351288 182.025726,289.200470 178.714813,289.270630 
	C174.330261,289.363525 171.125671,287.495056 170.321167,283.160583 
	C169.462921,278.536621 171.953613,275.632538 176.838226,274.337585 
z"/>
<path fill="#070603" opacity="1.000000" stroke="none" 
	d="
M94.664108,288.225037 
	C88.888725,288.641022 83.454399,289.220093 78.063049,288.947876 
	C74.348831,288.760345 72.241600,285.885468 72.055046,282.171967 
	C71.854996,278.189758 73.906410,275.122101 77.811363,274.678925 
	C82.696686,274.124451 87.801659,273.889740 92.613335,274.698273 
	C99.081100,275.785034 100.159927,282.835083 94.664108,288.225037 
z"/>
<path fill="#070603" opacity="1.000000" stroke="none" 
	d="
M325.400574,289.236267 
	C319.724823,288.221863 317.045410,285.364777 317.422852,281.185547 
	C317.804535,276.959412 321.010864,274.376129 326.175903,274.252136 
	C329.318756,274.176697 332.469147,274.135284 335.608704,274.262482 
	C340.578430,274.463837 343.834656,277.465027 343.894470,281.702515 
	C343.954193,285.931061 340.704407,289.020142 335.778107,289.216156 
	C332.472992,289.347656 329.158905,289.252106 325.400574,289.236267 
z"/>
<path fill="#070604" opacity="1.000000" stroke="none" 
	d="
M387.796326,274.772522 
	C392.014465,276.679688 393.733368,279.710205 392.623291,283.762421 
	C391.507568,287.835358 388.338654,289.368103 384.240143,289.272003 
	C380.763702,289.190491 377.275543,289.368011 373.809113,289.157776 
	C369.398865,288.890381 366.596191,285.965881 366.525482,281.924866 
	C366.456116,277.960083 369.275696,274.579010 373.547058,274.363098 
	C378.150696,274.130402 382.785980,274.524109 387.796326,274.772522 
z"/>
<path fill="#070603" opacity="1.000000" stroke="none" 
	d="
M434.370361,274.254517 
	C440.150146,275.826355 442.530884,278.673676 441.949615,282.817688 
	C441.368195,286.962891 438.256866,289.174866 432.738647,289.248871 
	C429.407196,289.293549 426.066528,289.341187 422.743561,289.150848 
	C418.450165,288.904938 416.035645,286.459869 415.707764,282.188110 
	C415.394257,278.103790 418.142792,274.751190 422.446686,274.369995 
	C426.251221,274.032990 430.105804,274.260803 434.370361,274.254517 
z"/>
<path fill="#010101" opacity="1.000000" stroke="none" 
	d="
M351.940186,397.784546 
	C348.714172,383.473419 356.719360,369.776825 370.080688,366.216492 
	C383.463959,362.650330 397.310455,370.052673 401.642731,383.089661 
	C406.003235,396.211609 399.302002,410.509277 386.481506,415.437408 
	C373.313324,420.499115 358.898254,414.468109 353.174225,401.480621 
	C352.706512,400.419434 352.396362,399.288818 351.940186,397.784546 
z"/>
<path fill="#E9F0FB" opacity="1.000000" stroke="none" 
	d="
M343.122162,134.577484 
	C343.598511,129.815094 345.817627,129.204086 349.287048,131.236038 
	C362.454865,138.948029 375.647949,146.617401 388.779144,154.391235 
	C393.305450,157.070877 393.256104,159.187027 388.675690,161.889725 
	C375.818146,169.476379 362.934113,177.018570 350.024963,184.517136 
	C345.081177,187.388840 343.147827,186.227188 343.132965,180.410431 
	C343.094238,165.279480 343.120392,150.148376 343.122162,134.577484 
z"/>
<path fill="#EBF2FC" opacity="1.000000" stroke="none" 
	d="
M132.073013,135.912964 
	C142.567535,142.038406 152.743149,147.988068 162.891174,153.984390 
	C168.298935,157.179749 168.309555,159.014236 162.910019,162.197235 
	C150.325928,169.615402 137.727295,177.009216 125.103455,184.359497 
	C119.752991,187.474823 118.037849,186.447601 118.027588,180.194641 
	C118.003281,165.384766 117.998497,150.574768 118.030617,135.764923 
	C118.043427,129.858795 119.797112,128.849747 124.864517,131.733978 
	C127.172676,133.047714 129.450867,134.414078 132.073013,135.912964 
z"/>
</svg>